<svg width="42" height="38" viewBox="0 0 42 38" fill="none" xmlns="http://www.w3.org/2000/svg">
<path d="M39.3818 4.83636H31.7818V0H29.0182V4.83636H12.4364V0H9.67273V4.83636H2.07273C1.5232 4.837 0.996368 5.05559 0.607795 5.44416C0.219222 5.83273 0.000639993 6.35957 0 6.90909V35.9273C0.000639993 36.4768 0.219222 37.0036 0.607795 37.3922C0.996368 37.7808 1.5232 37.9994 2.07273 38H39.3818C39.9313 37.9994 40.4582 37.7808 40.8468 37.3922C41.2353 37.0036 41.4539 36.4768 41.4545 35.9273V6.90909C41.4539 6.35957 41.2353 5.83273 40.8468 5.44416C40.4582 5.05559 39.9313 4.837 39.3818 4.83636ZM38.6909 35.2364H2.76364V7.6H9.67273V11.0545H12.4364V7.6H29.0182V11.0545H31.7818V7.6H38.6909V35.2364Z" fill="#FF8787"/>
<path d="M11.0544 15.8909H8.29077V18.6546H11.0544V15.8909Z" fill="#FF8787"/>
<path d="M18.6545 15.8909H15.8909V18.6546H18.6545V15.8909Z" fill="#FF8787"/>
<path d="M25.5634 15.8909H22.7998V18.6546H25.5634V15.8909Z" fill="#FF8787"/>
<path d="M33.1638 15.8909H30.4001V18.6546H33.1638V15.8909Z" fill="#FF8787"/>
<path d="M11.0544 22.1091H8.29077V24.8727H11.0544V22.1091Z" fill="#FF8787"/>
<path d="M18.6545 22.1091H15.8909V24.8727H18.6545V22.1091Z" fill="#FF8787"/>
<path d="M25.5634 22.1091H22.7998V24.8727H25.5634V22.1091Z" fill="#FF8787"/>
<path d="M33.1638 22.1091H30.4001V24.8727H33.1638V22.1091Z" fill="#FF8787"/>
<path d="M11.0544 28.3273H8.29077V31.0909H11.0544V28.3273Z" fill="#FF8787"/>
<path d="M18.6545 28.3273H15.8909V31.0909H18.6545V28.3273Z" fill="#FF8787"/>
<path d="M25.5634 28.3273H22.7998V31.0909H25.5634V28.3273Z" fill="#FF8787"/>
<path d="M33.1638 28.3273H30.4001V31.0909H33.1638V28.3273Z" fill="#FF8787"/>
</svg>
